<?xml version="1.0" encoding="UTF-8"?><svg id="Capa_2" xmlns="http://www.w3.org/2000/svg" viewBox="0 0 474.24 98.38"><defs><style>.cls-1{fill:#24b4b1;}.cls-1,.cls-2,.cls-3{stroke-width:0px;}.cls-2{fill:#292e36;}.cls-3{fill:#243d3d;}</style></defs><g id="Capa_1-2"><path class="cls-1" d="m149.05,51.91c0,4.79,1.36,8.55,4.09,11.27,2.73,2.73,6.4,4.09,11.03,4.09,2.56,0,4.75-.29,6.57-.87,1.82-.41,3.1-.62,3.84-.62,1.73,0,3.14.72,4.21,2.17,1.07,1.44,1.61,3.2,1.61,5.26,0,3.39-1.61,6.01-4.83,7.87-3.22,1.86-7.68,2.79-13.38,2.79-4.96,0-9.58-.76-13.88-2.29-4.3-1.53-7.97-3.69-11.03-6.5-3.06-2.72-5.41-6.05-7.06-9.97-1.65-3.92-2.48-8.2-2.48-12.82,0-5.2.85-9.89,2.54-14.06,1.69-4.17,4.15-7.62,7.37-10.34,2.89-2.64,6.32-4.63,10.28-5.95,3.96-1.32,8.3-1.98,13.01-1.98,5.78,0,10.32,1.03,13.63,3.1,3.3,2.06,4.96,4.87,4.96,8.42,0,1.9-.43,3.49-1.3,4.77-.87,1.28-2.21,1.92-4.03,1.92-.74,0-1.57-.12-2.48-.37-2.23-.83-4.71-1.24-7.43-1.24-4.46,0-8.12,1.4-10.96,4.21-2.85,2.81-4.28,6.52-4.28,11.15Z"/><path class="cls-1" d="m241.59,42.62v27.75c0,1.9-.47,3.53-1.42,4.89-.95,1.36-2.5,2.66-4.65,3.9-5.29,3.22-12.84,4.83-22.67,4.83-9.17,0-16.25-1.72-21.25-5.14-5-3.43-7.49-8.44-7.49-15.05,0-5.7,1.69-10.08,5.08-13.13,3.39-3.06,8.63-4.96,15.73-5.7l16.23-1.73v-.87c0-4.46-4.09-6.69-12.27-6.69-3.55,0-7.64.58-12.26,1.74-1.65.41-2.85.62-3.59.62-1.65,0-2.93-.68-3.84-2.04-.91-1.36-1.36-3.04-1.36-5.02,0-2.15.48-3.84,1.42-5.08.95-1.24,2.58-2.35,4.89-3.34,4.3-1.73,10.2-2.6,17.72-2.6,9.58,0,16.93,1.92,22.05,5.76,5.12,3.84,7.68,9.48,7.68,16.91Zm-20.32,24.41v-9.91s-8.92.74-8.92.74c-5.29.33-7.93,2.07-7.93,5.2,0,3.72,2.81,5.58,8.42,5.58,1.65,0,3.28-.14,4.89-.43,1.61-.29,2.79-.68,3.53-1.18Z"/><path class="cls-1" d="m281.36,38.28c-1.4-1.24-3.39-1.86-5.95-1.86-3.63,0-6.65.82-9.04,2.48v37.29c0,2.81-.7,4.69-2.11,5.64-1.4.95-3.01,1.38-4.83,1.3l-2.48-.12c-4.21,0-7.21-.74-8.98-2.23-1.78-1.49-2.66-4.05-2.66-7.68v-37.17c0-2.06.41-3.8,1.24-5.2.83-1.4,2.19-2.77,4.09-4.09,3.06-2.07,6.73-3.7,11.03-4.89,4.3-1.2,8.88-1.8,13.75-1.8,9.33,0,16.52,2.04,21.56,6.13,5.04,4.09,7.56,9.77,7.56,17.03v33.08c0,2.81-.7,4.69-2.11,5.64-1.4.95-3.02,1.38-4.83,1.3l-2.48-.12c-4.21,0-7.21-.74-8.98-2.23-1.78-1.49-2.66-4.05-2.66-7.68v-29.24c0-2.48-.7-4.33-2.11-5.58Z"/><path class="cls-1" d="m310.16,1.42C311.44.48,313.07,0,315.05,0l2.73.12c4.21,0,7.19.72,8.92,2.17,1.74,1.45,2.6,4.03,2.6,7.74v12.14c3.88-1.49,7.89-2.23,12.02-2.23,3.96,0,7.72.7,11.27,2.11,3.55,1.4,6.69,3.43,9.42,6.07,5.86,5.86,8.79,13.79,8.79,23.79,0,10.41-3.06,18.42-9.17,24.03-2.89,2.64-6.42,4.65-10.59,6.01-4.17,1.36-8.78,2.04-13.82,2.04-9.5,0-17.34-2.23-23.54-6.69-3.63-2.64-5.45-5.95-5.45-9.91V7.06c0-2.81.64-4.69,1.92-5.64Zm39.09,50.49c0-4.96-1.03-8.77-3.1-11.46-2.07-2.68-5-4.03-8.8-4.03-1.57,0-2.95.14-4.15.43-1.2.29-2.54.81-4.03,1.55v27.01c2.06,1.32,4.75,1.98,8.05,1.98,3.8,0,6.75-1.34,8.86-4.03,2.11-2.68,3.16-6.5,3.16-11.46Z"/><path class="cls-1" d="m393.47,81.83c-1.4.95-3.01,1.38-4.83,1.3l-2.48-.12c-4.21,0-7.21-.74-8.98-2.23-1.78-1.49-2.66-4.05-2.66-7.68v-37.17c0-3.3,1.2-5.99,3.59-8.05s6.28-3.96,11.65-5.7c4.87-1.4,9.58-2.11,14.12-2.11,8.59,0,12.88,3.26,12.88,9.79,0,.99-.04,1.57-.12,1.74-.33,2.89-2.56,4.54-6.69,4.96-2.64.25-5.31.66-7.99,1.24-2.68.58-4.81,1.2-6.38,1.86v36.55c0,2.81-.7,4.69-2.11,5.64Z"/><path class="cls-1" d="m474.24,42.62v27.75c0,1.9-.47,3.53-1.42,4.89-.95,1.36-2.5,2.66-4.65,3.9-5.29,3.22-12.84,4.83-22.67,4.83-9.17,0-16.25-1.72-21.25-5.14-5-3.43-7.49-8.44-7.49-15.05,0-5.7,1.69-10.08,5.08-13.13,3.39-3.06,8.63-4.96,15.73-5.7l16.23-1.73v-.87c0-4.46-4.09-6.69-12.27-6.69-3.55,0-7.64.58-12.26,1.74-1.65.41-2.85.62-3.59.62-1.65,0-2.93-.68-3.84-2.04-.91-1.36-1.36-3.04-1.36-5.02,0-2.15.48-3.84,1.42-5.08.95-1.24,2.58-2.35,4.89-3.34,4.3-1.73,10.2-2.6,17.72-2.6,9.58,0,16.93,1.92,22.05,5.76,5.12,3.84,7.68,9.48,7.68,16.91Zm-20.32,24.41v-9.91s-8.92.74-8.92.74c-5.29.33-7.93,2.07-7.93,5.2,0,3.72,2.81,5.58,8.42,5.58,1.65,0,3.28-.14,4.89-.43,1.61-.29,2.79-.68,3.53-1.18Z"/><path class="cls-2" d="m99.72,50.58c-.05-.06-.11-.12-.17-.18.01-.01.01-.02.02-.04.05.07.1.14.14.21Z"/><path class="cls-1" d="m105.65,65.58c.26,3.83-.17,7.76-1.27,11.46-.01.12-.05.24-.1.36-1.75,5.68-5.07,10.8-9.9,14.21-4.98,3.52-10.86,4.94-16.97,5.34l-9.06-8.09-11.84-10.58c6.07.06,12.14.05,18.2-.05,2.33-.04,4.74-.1,6.89-1,3.09-1.3,5.36-4.39,5.64-7.74.01-.06.02-.13.02-.19.24-3.4-1.58-6.88-4.53-8.62-2.86-1.69-6.36-1.73-9.68-1.73-.8,0-1.59.01-2.39.01h0s-22.97.01-22.97.01c-2.49,0-4.75-1.01-6.38-2.64-1.54-1.55-2.52-3.64-2.62-5.96,0-.3.02-.58.07-.87.62-4.38,4.38-7.75,8.93-7.75h22.97c.8.01,1.59.01,2.39.02,3.32,0,6.82-.04,9.68-1.73,2.95-1.74,4.77-5.21,4.53-8.62-.23-3.42-2.51-6.61-5.67-7.93-2.15-.9-4.56-.96-6.89-1-6.06-.1-12.13-.11-18.2-.05L77.4,3.79c6.12.4,12,1.82,16.97,5.33,8.07,5.71,11.95,16.19,11.27,26.04-.06.88-.15,1.75-.29,2.63-.7,4.58-2.45,9.05-5.64,12.37-.05.06-.11.12-.17.18,0,.01.01.01.02.02-.01.01-.01.02-.02.04.06.06.12.12.17.18,3.19,3.32,4.94,7.78,5.64,12.37.13.88.23,1.75.29,2.63Z"/><path class="cls-1" d="m38.75,49.51c-.05.29-.07.57-.07.87-.02-.13-.02-.27-.02-.42,0-.15.01-.3.02-.45h.07Z"/><path class="cls-1" d="m99.72,50.16c-.05.07-.1.14-.14.2-.01-.01-.02-.01-.02-.02.06-.06.12-.12.17-.18Z"/><path class="cls-3" d="m63.99,95.27c-5.23,2.01-10.9,3.11-16.83,3.11-5.24,0-10.27-.86-14.97-2.43C13.49,89.69,0,72.03,0,51.22,0,32.52,10.89,16.36,26.66,8.74c6.2-3,13.15-4.68,20.5-4.68,5.11,0,10.01.81,14.62,2.31l-17.23,15.87h-.01c-10.36,1.2-19.03,7.92-23.01,17.14-1.51,3.49-2.34,7.32-2.34,11.35,0,9.49,4.61,17.9,11.71,23.11,4.46,3.3,9.91,5.32,15.84,5.55l17.26,15.88Z"/></g></svg>